PathFileType	4	(X/Y/Z)	Run_400 01
DataRate	CameraRate	NumFrames	NumMarkers	Units	OrigDataRate	OrigDataStartFrame	OrigNumFrames
120	120	4	42	mm	120	71	128
Frame#	Time	LASI			RASI			LPSI			RTH1			RTH2			RTH3			LTH1			LTH2			LTH3			RTB1			RTB2			RTB3			LTB1			LTB2			LTB3			RCAL			RTOE			RMT5			LCAL			LTOE			LMT5			LACR			RACR			CLAV			C7			RUA1			RUA2			RUA3			RLEL			RMEL			LUA1			LUA2			LUA3			LLEL			LMEL			RFAsuperior			RFAradius			LFAsuperior			LFAradius			LFAulna			RFAulna			RPSI			
		X1	Y1	Z1	X2	Y2	Z2	X3	Y3	Z3	X4	Y4	Z4	X5	Y5	Z5	X6	Y6	Z6	X7	Y7	Z7	X8	Y8	Z8	X9	Y9	Z9	X10	Y10	Z10	X11	Y11	Z11	X12	Y12	Z12	X13	Y13	Z13	X14	Y14	Z14	X15	Y15	Z15	X16	Y16	Z16	X17	Y17	Z17	X18	Y18	Z18	X19	Y19	Z19	X20	Y20	Z20	X21	Y21	Z21	X22	Y22	Z22	X23	Y23	Z23	X24	Y24	Z24	X25	Y25	Z25	X26	Y26	Z26	X27	Y27	Z27	X28	Y28	Z28	X29	Y29	Z29	X30	Y30	Z30	X31	Y31	Z31	X32	Y32	Z32	X33	Y33	Z33	X34	Y34	Z34	X35	Y35	Z35	X36	Y36	Z36	X37	Y37	Z37	X38	Y38	Z38	X39	Y39	Z39	X40	Y40	Z40	X41	Y41	Z41	X42	Y42	Z42	

62	1.15	1098.086659	976.826197	-439.622791	1097.236225	981.976097	-202.76721	931.934428	1020.13673	-372.598004	1090.014347	834.63014	-146.572731	1248.367748	772.442649	-165.567572	1255.267369	671.719253	-172.911062	1012.784941	810.471053	-493.844936	1080.912084	703.577371	-475.110281	994.714498	584.9189	-450.622874	1249.175412	500.09361	-239.278173	1167.585693	520.986528	-186.380228	1079.808589	433.500808	-248.328226	979.928543	346.714565	-374.376889	891.8579549999999	285.190867	-414.844942	857.254902	197.894174	-343.234173	893.8798399999999	470.771151	-287.796256	985.216247	280.071672	-284.276236	942.765499	285.2893	-182.436876	684.699763	134.75988	-335.252869	878.52449	75.40881899999999	-284.426244	866.191242	38.957377	-390.765035	1113.284257	1446.590752	-529.309141	1076.974541	1459.741093	-160.911202	1161.843907	1405.048594	-310.307053	1053.510634	1493.621896	-358.916919	1025.927247	1392.358249	-117.524514	1002.372888	1309.621411	-124.987078	920.766628	1335.331458	-135.488894	851.803533	1249.067327	-105.338637	855.188371	1235.836558	-170.856206	1088.053516	1363.361191	-578.01783	1021.217446	1310.391203	-560.550278	1079.505984	1261.154029	-596.51179	1016.296718	1158.952487	-627.2133250000001	974.5454570000001	1152.008411	-563.075306	891.343798	1171.062624	-66.544741	917.530035	984.950548	-46.87742	1098.768047	1173.052211	-604.505327	1236.106657	1218.986561	-484.998899	1252.927355	1154.649974	-488.420743	851.3496720000001	986.905248	-69.647503	930.926959	1019.269989	-275.791116	
63	1.158333	1100.291419	981.02026	-440.347644	1097.936822	989.780975	-203.943823	934.217346	1026.506672	-374.83471	1092.581883	845.125233	-145.902465	1252.016322	785.626801	-166.003175	1259.799432	684.314658	-174.081471	1010.665929	814.958569	-494.434342	1070.59426	706.106931	-473.653948	976.501035	592.647476	-449.313069	1264.640709	505.914579	-239.256544	1180.764515	519.316096	-186.799808	1101.535135	422.77891	-248.418389	955.3261639999999	353.688906	-376.53612	865.943295	293.889684	-417.043569	831.057503	206.032536	-345.203959	913.991162	441.305354	-288.76708	1024.194573	260.990636	-282.77864	980.331903	262.586968	-181.412945	658.525579	147.609552	-337.408315	846.943777	76.09594300000001	-284.68811	832.37995	39.32126	-390.728861	1116.312679	1455.375492	-527.479135	1071.55955	1467.301253	-161.082471	1160.338373	1413.538941	-307.697365	1052.760828	1500.466883	-358.792086	1019.317952	1401.499376	-118.687822	995.8123849999999	1318.55648	-126.012775	914.664901	1344.24922	-139.306694	844.035121	1258.533842	-111.482172	850.078963	1244.669639	-176.431373	1093.171005	1371.84044	-576.684863	1026.526448	1318.839866	-561.984405	1086.436276	1269.669159	-595.508105	1024.710873	1166.165158	-626.852837	981.239144	1159.626068	-563.7310670000001	881.970465	1181.551138	-70.035006	909.299415	995.738322	-47.446065	1106.142385	1183.517819	-602.615779	1237.179075	1238.682176	-479.846474	1257.355646	1175.195462	-481.720097	844.8433230000001	996.361351	-73.67013900000001	932.210285	1026.451038	-277.826435	
64	1.166667	1103.207764	985.4807970000001	-440.721271	1098.692909	997.907648	-205.179634	937.280994	1033.403985	-377.557759	1095.264224	856.424686	-145.239743	1254.611722	798.21212	-166.293807	1262.605256	695.906753	-175.328059	1008.683911	819.990779	-494.996894	1061.234991	709.903952	-472.272958	960.807347	601.425016	-449.713798	1278.790088	511.02708	-239.126031	1193.36899	516.7680769999999	-187.055394	1124.057023	412.025373	-248.325365	932.052463	362.335106	-378.589265	842.047415	303.878865	-419.676454	807.266136	215.278581	-347.950557	936.581566	411.854624	-289.559493	1064.347391	243.590152	-281.334622	1019.230029	241.157206	-180.766706	635.058399	161.969574	-339.585209	816.073968	76.31258699999999	-285.06381	798.782968	39.680923	-390.817984	1119.256007	1464.599905	-525.582464	1066.456667	1475.199472	-161.408617	1158.919229	1422.52008	-305.057168	1052.132265	1507.628752	-358.610374	1013.262574	1410.898665	-119.895585	989.88778	1327.669048	-127.12308	909.200321	1353.602186	-142.813518	837.033857	1268.310869	-117.401776	845.17825	1254.231442	-181.638266	1097.816616	1381.02812	-575.315704	1031.202805	1328.128064	-563.202243	1092.642537	1278.857735	-594.470682	1031.941065	1174.485986	-626.66693	986.752639	1168.194174	-564.797704	873.801888	1192.334157	-73.769008	902.0340629999999	1006.827144	-48.388069	1112.233222	1194.744212	-601.121367	1236.677136	1257.959341	-475.252604	1259.886072	1195.375221	-475.994435	839.444165	1005.96931	-77.658619	933.850112	1034.048525	-280.343337	
65	1.175	1106.649951	989.986679	-440.598141	1099.55178	1006.225192	-206.437122	940.978071	1040.593115	-380.647826	1097.987063	868.257656	-144.555405	1255.993398	809.566047	-166.615525	1263.835199	706.241489	-176.545391	1006.730424	825.764789	-495.670301	1053.051628	714.666862	-470.984824	947.627307	610.774712	-451.723674	1291.701818	515.370176	-238.88339	1205.610543	513.389813	-187.045216	1147.371961	401.445768	-248.007155	910.222621	372.310241	-380.590682	820.141176	314.723751	-422.694298	786.016707	225.137609	-351.441709	961.4506699999999	382.923878	-289.940764	1105.304103	228.104642	-280.28994	1059.415654	221.176587	-180.462173	614.6846399999999	177.626523	-341.931115	786.0523030000001	76.57680499999999	-285.45401	765.622733	40.3617	-391.168627	1122.137602	1473.957772	-523.674866	1061.783478	1483.135224	-161.848165	1157.59779	1431.591518	-302.470349	1051.662592	1514.873332	-358.395123	1007.753677	1420.297353	-121.154053	984.523727	1336.776289	-128.327044	904.300631	1363.121125	-146.112184	830.823228	1278.228064	-122.951511	840.453217	1264.372379	-186.575382	1102.115917	1390.673703	-574.183327	1035.11815	1338.077648	-564.132478	1098.032318	1288.528227	-593.538376	1038.057976	1183.599014	-626.7015280000001	991.117977	1177.436376	-566.1746920000001	866.744548	1203.11123	-77.609336	895.693038	1017.894528	-49.674866	1117.20164	1206.451352	-600.004367	1234.963262	1276.458767	-471.23679	1260.903939	1214.848697	-470.711645	834.874023	1015.561035	-81.594787	935.757566	1041.854656	-283.203182	
